<svg id="Layer_1" data-name="Layer 1" xmlns="http://www.w3.org/2000/svg" viewBox="0 0 416.39 182.34"><defs><style>.cls-1{fill:#faa61a;}.cls-1,.cls-2,.cls-3{fill-rule:evenodd;}.cls-2{fill:#0db14b;}.cls-3{fill:#231f20;}</style></defs><title>swach-bharat-abhiyan-logo</title><polygon class="cls-1" points="117.1 68.33 149.21 68.33 149.21 74.18 117.1 74.18 117.1 68.33 117.1 68.33"/><polygon class="cls-2" points="117.1 79 149.21 79 149.21 84.85 117.1 84.85 117.1 79 117.1 79"/><path class="cls-3" d="M1348.21,841.92a8,8,0,0,1-2,.33,8.42,8.42,0,0,1-2.91-.41v-7.26h17.45v5.67a19.66,19.66,0,0,0-3-3,6.38,6.38,0,0,0-3.11-.72c-3.72,0-6.34,2.47-6.43,5.36Zm179.24-7.34v3.28h-5.4c-3.9,0-5.65,2.23-5.65,4.34,0,2.58,1.4,5,5.44,10.77l1.52-1.16c-2.06-2.43-3.43-5-3.43-6.82,0-2.13.76-3.66,3.45-3.66h4.16v9.33l3.69,2.61V834.58h4.08l-2-3.47h-51.92l2.05,3.47h3v7.82h-6.32l.13-4.5c0-2.49-1.4-6.79-5.74-6.79a4.1,4.1,0,0,0-4.29,4.17c0,2.37,1.91,4.71,6.54,5.76l-.2,1.33h-2a1.16,1.16,0,0,0-1.18,1.25c0,1.44,4,5.22,5.27,5.22.91,0,1.14-.7,1.23-2.94h6.61v4.76l3.66,2.61V834.58h5v16.08l3.63,2.61V834.58H1507v5.72c0,.45-.17.74-.46.74-.7,0-1.69-1-2.76-1-.55,0-1.27.92-1.16,1.36,0,.68.72,1.76,2.19,3.55l6.89,8.59,1.47-1.46a45.52,45.52,0,0,1-5.32-6.11c1.44-1,2.66-2.49,2.66-4.06v-7.3h17ZM1477,835.91l-.14,3.31c-2.39-.41-3.43-1.49-3.43-3.21,0-1.31,1.16-2.59,2-2.59.65,0,1.64.66,1.55,2.49Zm-79.92,1v-2.37h5.8l-2-3.47H1332l2,3.47h5.72v6.14c0,.3-.09.51-.19.51-.45,0-1.35-1.22-2.19-1.22a1.59,1.59,0,0,0-1.49,1.45c0,1.12,1.06,2.94,1.72,3.88l6.57,9.06,1.54-1.52a51.75,51.75,0,0,1-5.22-6.29,11.62,11.62,0,0,0,2.73-2.94c1,1,2.25,2.08,3.62,2.08a9.65,9.65,0,0,0,2.47-.39c1.35,2.16,3.76,3.9,6.17,3.9,1.66,0,3.35-.78,5.44-2.4v3.82l3.55,2.61V834.58h29.26v2a4.25,4.25,0,0,0-3.84,4.34c0,2.15,1.65,4.18,5,6a10.51,10.51,0,0,1-7.37,3.46c-1.88,0-2.42-.55-2.42-1.51,0-1.21,1.2-2.4,4.71-2.4l-1.53-3.66a6,6,0,0,0-3.48.63,4.13,4.13,0,0,1-.62-.49l-.66-1a1.67,1.67,0,0,1-.06-.38,2.13,2.13,0,0,1,2.36-2,12.09,12.09,0,0,1,2.33.23l-1.65-3.35a7.25,7.25,0,0,0-1.7-.2,4.1,4.1,0,0,0-4.23,2.77l-.64-1.16H1367.4l2,3.47h2.33a4.75,4.75,0,0,0-.64,2.54c0,2.61,3.32,6,6.41,6,1.13,0,2.71-.66,4.63-2.07.59,2.53,4.28,5.43,7.48,5.43,4.59,0,10.7-4.51,10.7-10.66,0-1.73-1.58-4.46-3.23-5.66Zm-16.25,4.38a9.77,9.77,0,0,0,1.29,1.94c-2.57,2.49-4.82,3.73-6.64,3.73-.93,0-1.39-.36-1.39-1.24a5.09,5.09,0,0,1,2.45-3.92,6.88,6.88,0,0,1,3-.51Zm14.82,4.36c-1.45-1.21-2.17-2.28-2.17-3.77s1.08-3.07,2.4-3.07c.7,0,1.27.62,1.27,2.28a9.52,9.52,0,0,1-1.5,4.56Zm-42.07.66a2,2,0,0,1-2-2.25,3.88,3.88,0,0,1,3.68-4.05,8.48,8.48,0,0,1,5.57,2.28v.5c-2,1.44-5.62,3.52-7.27,3.52Z" transform="translate(-1302.07 -751.09)"/><path class="cls-3" d="M1325.52,921.55v-7.89h12v4.85h0a5.56,5.56,0,0,0-1.87-2.43,5.16,5.16,0,0,0-2.29-.56,4.29,4.29,0,0,0-4.54,4.23c0,2.32,3,5,5.58,5a5.85,5.85,0,0,0,3.25-1.44l0,2.72,2.78,2v-6.28c.65-.76,3.16-2.38,4-2.38a1,1,0,0,1,.92,1,16.3,16.3,0,0,1-2.06,4.93l2.58,1.92a11.08,11.08,0,0,0,1.63-4.95c0-2.9-2-5.21-4.07-5.21a6,6,0,0,0-3,1.27v-4.61h9.17l-1.55-2.6h-36.09l1.51,2.6h2.19v8.49c0,.62.2,1.15,1.15,1.8.6.41,7.62,4.56,8.42,5.1a1.51,1.51,0,0,1,.8,1.26,3.47,3.47,0,0,1-.48,1.24l2.53,1.87a4.69,4.69,0,0,0,1.18-2.4,2.43,2.43,0,0,0-1.33-2l-6.87-4.23c-2.34-1.45-2.56-2.21-2.56-3v-8.16h4.25v5.88c0,1.12-.32,1.52-1,1.52-.43,0-.89-.1-1.24-.13l1.21,2.05a8.41,8.41,0,0,0,2.45.54c1,0,1.44-.4,1.44-2Zm225.57-7.89h2.18v4.28c0,.33-.11.54-.33.54-.52,0-1.25-.76-2-.76-.44,0-1,.68-.88,1,0,.51.53,1.33,1.65,2.68l5.13,6.4,1.09-1.07a39.83,39.83,0,0,1-4-4.58,4.12,4.12,0,0,0,2-3v-5.44h5.19l-1.56-2.6h-13.43c-1.67-2.83-2.87-4.92-4.21-6.15a3.62,3.62,0,0,0-2.56-1.09c-.75,0-1.66,0-1.66.65,0,.36.13.64,1.31,2.74a7.18,7.18,0,0,1,1.77-.3,2.17,2.17,0,0,1,1.57.71,18.25,18.25,0,0,1,2.64,3.44h-9.79l1.47,2.6h2v3.83c0,.8-1.62,1.74-2.94,1.74a3.8,3.8,0,0,1-2.4-1.15,2.54,2.54,0,0,0,1.35-2.2c0-2.2-3.14-5.19-5.73-5.19a16.61,16.61,0,0,0-4.07,1.08l1.44,2.72a14.41,14.41,0,0,1,4.61-1.27c.78,0,1.31.27,1.31,1.1,0,1.42-1.42,2.62-4.32,3-.62.08-.78.28-.78.41a11.83,11.83,0,0,0,1.68,2.35,12.91,12.91,0,0,0,3.42-1.33,4.4,4.4,0,0,1,.6,2.21c0,1.44-1.42,2.56-3.27,2.56-1.7,0-3.44-1.5-4.81-4.34l-1.09.68c1.69,3.56,4.49,6.11,7,6.11,2.72,0,4.59-1.75,4.59-3.81a4.62,4.62,0,0,0-.32-1.74l0-.08a8.79,8.79,0,0,0,2.63,1,2.83,2.83,0,0,0,1.12-.18v4.46l2.75,1.94v-14h3.17v12l2.73,1.94v-14h3.7Zm-33.32,0-1.53-2.6h-3c-.51-4.82-2.83-7-5.61-7-2.16,0-3.85,1.52-3.85,3.22a3.88,3.88,0,0,0,1,2.4l1.64-.19a6.31,6.31,0,0,1-.06-1,2.13,2.13,0,0,1,2.22-2.09c1.71,0,3.25,1.89,3.34,4.69H1487.6l1.52,2.6h10.22v4.85h0a5.49,5.49,0,0,0-1.87-2.43,5.1,5.1,0,0,0-2.29-.56,4.29,4.29,0,0,0-4.54,4.23c0,2.32,3,5,5.58,5a5.88,5.88,0,0,0,3.26-1.44l0,2.72,2.79,2v-6.28c.65-.76,3.15-2.38,4-2.38a1,1,0,0,1,.92,1,16.48,16.48,0,0,1-2,4.93l2.58,1.92a11.17,11.17,0,0,0,1.61-4.95c0-2.9-2-5.21-4.06-5.21a5.92,5.92,0,0,0-3,1.27v-4.61h9.17v12l2.73,1.94v-14Zm-18.39,6.44c-.76.65-4.1,2.67-5,2.67-.6,0-1.18-.65-1.18-1.71a3.08,3.08,0,0,1,2.82-3,4.72,4.72,0,0,1,3.33,2ZM1480,927.62v-14h3.72l-1.55-2.6h-73.39l1.55,2.6h4.42v4.58c0,.22,0,.37-.15.37-.35,0-1-.89-1.68-.89a1.23,1.23,0,0,0-1.17,1.08,6.53,6.53,0,0,0,1.35,2.92l5.08,6.73,1.2-1.1a37.79,37.79,0,0,1-4-4.72,10,10,0,0,0,2.1-2.18,4.7,4.7,0,0,0,2.81,1.53,8.26,8.26,0,0,0,1.91-.27,6.18,6.18,0,0,0,4.79,2.91,7.18,7.18,0,0,0,4.21-1.8v2.86l2.78,1.94v-14h22.69v1.45a3.22,3.22,0,0,0-3,3.26c0,1.59,1.28,3.13,3.84,4.47a8.26,8.26,0,0,1-5.71,2.62c-1.46,0-1.87-.45-1.87-1.16,0-.89.92-1.8,3.65-1.8l-1.2-2.73a4.87,4.87,0,0,0-2.69.49,2.61,2.61,0,0,1-.47-.38l-.09-1.21a3.82,3.82,0,0,1-.43.46.88.88,0,0,1-.06-.27,1.65,1.65,0,0,1,1.84-1.49,8.73,8.73,0,0,1,1.79.19l-1.26-2.51a6.87,6.87,0,0,0-1.32-.16,3.17,3.17,0,0,0-3.29,2.07l-.5-.86h-9.64l1.54,2.6h1.8a3.45,3.45,0,0,0-.51,1.88c0,2,2.6,4.53,5,4.53a6.58,6.58,0,0,0,3.57-1.56c.48,1.92,3.33,4.07,5.82,4.07,3.55,0,8.3-3.38,8.3-8a6.44,6.44,0,0,0-2.5-4.23v-1.77h12v2.44h-4c-2.9,0-4.22,1.68-4.22,3.24,0,1.94,1,3.73,4.07,8.06l1.14-.87c-1.55-1.83-2.59-3.71-2.59-5.11,0-1.57.59-2.72,2.61-2.72h3.11v7l2.73,1.94v-14h3.18v12l2.72,1.94Zm-33.36-8.92a8,8,0,0,0,1,1.45c-2,1.87-3.74,2.81-5.15,2.81-.71,0-1.09-.29-1.09-.94a3.85,3.85,0,0,1,1.91-2.95,5.86,5.86,0,0,1,2.39-.37ZM1458.2,922a3.48,3.48,0,0,1-1.69-2.83,2.17,2.17,0,0,1,1.87-2.29c.53,0,1,.49,1,1.72a6.86,6.86,0,0,1-1.17,3.4Zm-36.06-8.29h9v4.22a15.54,15.54,0,0,0-2.36-2.21,5,5,0,0,0-2.42-.52c-2.85,0-4.91,1.83-5,4a5.78,5.78,0,0,1-1.51.27,6.91,6.91,0,0,1-2.27-.32v-5.41h4.53Zm3.41,8.79a1.53,1.53,0,0,1-1.52-1.67,2.92,2.92,0,0,1,2.85-3,6.69,6.69,0,0,1,4.31,1.7v.38c-1.53,1.07-4.35,2.62-5.64,2.62Zm-31.4-.43H1399l0,3.66,2.81,1.94v-14h3l-1.53-2.6h-49.85l1.54,2.6h10.23v4.85h-.08a5.49,5.49,0,0,0-1.87-2.43,5.06,5.06,0,0,0-2.29-.56,4.27,4.27,0,0,0-4.52,4.23c0,2.32,3,5,5.56,5a5.71,5.71,0,0,0,3.24-1.44l0,2.72,2.79,2v-6.28c.64-.76,3.15-2.38,4-2.38a1,1,0,0,1,.93,1c0,.81-1.13,3.31-2.06,4.93l2.56,1.92a11.21,11.21,0,0,0,1.63-4.95c0-2.9-2-5.21-4.09-5.21a5.89,5.89,0,0,0-3,1.27v-4.61h16.3v2.53h-4.06c-2.46,0-3.79,1-3.79,3.31a7,7,0,0,0,6.92,7.13,3.77,3.77,0,0,0,1.95-.39l2.15,4.35,1.43-.71-2.41-4.15a2,2,0,0,0,1.11-1.64c0-1.19-2.63-2.94-3.46-2.94a1,1,0,0,0-1,.8c0,.89.44,1.08.44,1.52s-.93,1-2,1a2.94,2.94,0,0,1-2.81-3c0-1.76,1-2.75,2.43-2.75h5.21c.31,0,.53-.27.53-.73v-4.28h4.35v5.68h-.91a.7.7,0,0,0-.74.71c0,1.1,2.83,4,3.66,4,.5,0,.8-.25.8-.68V922Zm4.83-8.36v5.76h-4.83v-5.76Zm-33.72,6.44c-.76.65-4.09,2.67-5,2.67-.58,0-1.18-.65-1.18-1.71a3.1,3.1,0,0,1,2.84-3,4.74,4.74,0,0,1,3.33,2Zm-27.66,0c-.77.65-4.09,2.67-5,2.67-.59,0-1.18-.65-1.18-1.71a3.1,3.1,0,0,1,2.84-3,4.72,4.72,0,0,1,3.32,2Z" transform="translate(-1302.07 -751.09)"/><path class="cls-3" d="M1366.32,780.71a58.18,58.18,0,1,1-58.16,58.16,58.16,58.16,0,0,1,58.16-58.16Zm0,5.21a53,53,0,1,1-53,53,52.94,52.94,0,0,1,53-53Z" transform="translate(-1302.07 -751.09)"/><path class="cls-3" d="M1503.83,780.71a58.18,58.18,0,1,1-58.17,58.16,58.18,58.18,0,0,1,58.17-58.16Zm0,5.21a53,53,0,1,1-53,53,53,53,0,0,1,53-53Z" transform="translate(-1302.07 -751.09)"/><path class="cls-3" d="M1305.87,835.85c-3.36,1.52-5.64-3.3-1.8-5l20.22-9.11,127.36-59.25,11.83-5.13c14.18-5.34,28.12-9.19,40.58-3.25,19.31,9.84,16.34,38.53.16,52.07-3,2.49-6.24-1.21-3.75-3.81,24.75-26.08,9.41-57.89-31.6-41.32-2.57,1.05-4.78,1.88-7.29,3-46.77,21.09-93.33,43-139.93,64.68l-15.78,7.13Z" transform="translate(-1302.07 -751.09)"/><path class="cls-3" d="M1554.39,836.09c-3.33,1.61-5.62-3.23-1.82-5l100.5-46.47,11.81-5.14c14.18-5.35,27.71-9.85,40.15-3.94,19.34,9.85,16.37,38.56.16,52.09-3,2.48-6.21-1.17-3.76-3.82,24.58-26.64,9.43-58.38-31.15-40.64-2.54,1.12-4.8,1.88-7.31,3-36.34,16.4-72.64,32.63-108.58,49.92Z" transform="translate(-1302.07 -751.09)"/></svg>